<svg aria-hidden="true" style="position:absolute;width:0;height:0" xmlns="http://www.w3.org/2000/svg" overflow="hidden"><defs><symbol id="icon-ALARM" viewBox="0 0 34 32"><path d="M32.252 9.967c-1.704-3.897-4.751-6.942-8.542-8.604l-.106-.041a6.157 6.157 0 018.639 8.658l.01-.013zM32 16.787v.002c0 4.043-1.583 7.716-4.164 10.433l.006-.007 2.129 2.13A1.555 1.555 0 0128.872 32h-.001a1.582 1.582 0 01-1.101-.451l-2.285-2.287A15.06 15.06 0 0116.787 32c-3.25 0-6.261-1.021-8.731-2.76l.048.032-2.269 2.266a1.574 1.574 0 11-2.228-2.224l2.111-2.109a15.147 15.147 0 01-4.135-10.424c0-8.399 6.809-15.208 15.208-15.208s15.208 6.809 15.208 15.208v.006zM16.787 4.721c-6.664 0-12.066 5.402-12.066 12.066s5.402 12.066 12.066 12.066c6.664 0 12.066-5.402 12.066-12.066 0-6.664-5.402-12.066-12.066-12.066zm6.295 13.64h-6.295a1.574 1.574 0 01-1.574-1.574V8.394a1.574 1.574 0 013.148 0v6.82h4.721a1.574 1.574 0 010 3.148zM1.35 10.188A6.295 6.295 0 016.294.001h.012c1.471 0 2.823.51 3.888 1.363l-.012-.01C6.198 3.09 3.084 6.204 1.391 10.08l-.042.108z"/></symbol><symbol id="icon-BOOK" viewBox="0 0 32 32"><path d="M31.065 25.89l-14.471 5.99a1.52 1.52 0 01-1.198-.004l.01.004L.935 25.89A1.503 1.503 0 010 24.5v-23A1.5 1.5 0 011.5 0c.206 0 .403.04.583.114L2.073.11c.001.006.006.01.012.01h.001L16 5.88 29.911.12h.001a.012.012 0 00.012-.01c.17-.07.367-.11.573-.11a1.5 1.5 0 011.5 1.5v23.002c0 .624-.381 1.158-.922 1.385l-.01.004zM14.5 8.5L3 3.74V23.5l11.5 4.76V8.5zM29 3.74L17.5 8.5v19.76L29 23.5V3.74zm-9.121 6.89l5.5-2.5c.183-.081.396-.129.62-.13h.01a1.5 1.5 0 01.62 2.866l-.009.004-5.5 2.5a1.575 1.575 0 01-.62.13h-.011a1.5 1.5 0 01-.62-2.866l.009-.004zm0 5.5l5.5-2.5c.183-.081.396-.129.62-.13h.01a1.5 1.5 0 01.62 2.866l-.009.004-5.5 2.5v-.01a1.43 1.43 0 01-.62.14h-.011a1.5 1.5 0 01-.62-2.866l.009-.004zm0 5.5l5.5-2.5c.183-.081.396-.129.62-.13h.01a1.5 1.5 0 01.62 2.866l-.009.004-5.5 2.5a1.575 1.575 0 01-.62.13h-.011a1.5 1.5 0 01-.62-2.866l.009-.004zM6 8c.225.002.438.049.631.134l-.01-.004 5.5 2.5a1.5 1.5 0 01-.611 2.87h-.011.001a1.578 1.578 0 01-.631-.134l.01.004-5.5-2.5A1.5 1.5 0 015.99 8h.011H6zm0 5.5c.225.002.438.049.631.134l-.01-.004 5.5 2.5A1.5 1.5 0 0111.51 19h-.011.001-.002c-.225 0-.438-.052-.628-.144l.009.004v.01l-5.5-2.5a1.5 1.5 0 01.611-2.87h.011H6zM6 19c.225.002.438.049.631.134l-.01-.004 5.5 2.5a1.5 1.5 0 01-.611 2.87h-.011.001a1.578 1.578 0 01-.631-.134l.01.004-5.5-2.5A1.5 1.5 0 015.99 19h.011H6z"/></symbol><symbol id="icon-COMPUTER" viewBox="0 0 32 32"><path d="M30.452 25.29h-9.806v2.581l2.065 2.065v.516H9.292v-.516l2.065-2.065V25.29H1.551a1.548 1.548 0 01-1.548-1.548V3.097c0-.855.693-1.548 1.548-1.548h28.903c.855 0 1.548.693 1.548 1.548v20.645c0 .855-.693 1.548-1.548 1.548zm-.517-21.677H2.064v17.548h27.871V3.613zm-17.032 7.226c.427.001.814.174 1.094.454l.97.97 3.035-3.035a1.548 1.548 0 112.189 2.187l-.001.001-4.129 4.129c-.28.28-.667.453-1.094.453s-.814-.173-1.094-.453l-2.065-2.065a1.547 1.547 0 011.094-2.642z"/></symbol><symbol id="icon-HOME" viewBox="0 0 32 32"><path d="M32 16.5v.006a1.492 1.492 0 01-2.521 1.083l.001.001v.01L16.003 4.12 2.557 17.57A1.5 1.5 0 01.004 16.5v-.007c0-.422.177-.803.46-1.072l.001-.001L14.923.96A1.505 1.505 0 0116.004.5h.092c.023 0 .045.01.068.01.371.04.696.213.932.469l.001.001 5.9 5.9V5.5a1.5 1.5 0 013 0v4.38l5.6 5.6c.25.265.403.623.403 1.017v.003zM29 19v10.5a1.5 1.5 0 01-1.5 1.5h-3V19h-6v12h-14A1.5 1.5 0 013 29.5V19L16 6zm-15.5 0h-6v6h6v-6z"/></symbol><symbol id="icon-IMAGE" viewBox="0 0 32 32"><path d="M30.5 32h-29A1.5 1.5 0 010 30.5v-29A1.5 1.5 0 011.5 0h29A1.5 1.5 0 0132 1.5v29a1.5 1.5 0 01-1.5 1.5zM29 3H3v26h26V3zM6.5 4.5H12a1.5 1.5 0 010 3H7.5V12a1.5 1.5 0 01-3 0V4.5h2zM4.5 20a1.5 1.5 0 013 0v4.5H12a1.5 1.5 0 010 3H4.5V20zM20 4.5h7.5V12a1.5 1.5 0 01-3 0V7.5H20a1.5 1.5 0 010-3zm0 20h4.5V20a1.5 1.5 0 013 0v7.5H20a1.5 1.5 0 010-3z"/></symbol><symbol id="icon-LINE-GRAPH" viewBox="0 0 32 32"><path d="M30.5 32h-29A1.5 1.5 0 010 30.5v-29A1.5 1.5 0 011.5 0h29A1.5 1.5 0 0132 1.5v29a1.5 1.5 0 01-1.5 1.5zM29 3H3v26h26V3zM5.215 16.24l4-2.5a1.518 1.518 0 011.631.033l-.006-.004h.006l6.631 4.42 7.638-5.4a1.501 1.501 0 011.767 2.427l-.004.003-8.5 6c-.242.18-.547.289-.878.29a1.494 1.494 0 01-.865-.283l.004.003-6.657-4.43-3.135 1.95c-.236.169-.529.27-.847.27h-.003a1.5 1.5 0 01-.788-2.776l.006-.004z"/></symbol><symbol id="icon-MAGNIFYING-GLASS" viewBox="0 0 32 32"><path d="M31.101 26.862a3 3 0 11-4.248 4.238l-8.769-8.78A11.896 11.896 0 0111.952 24C5.307 24-.08 18.613-.08 11.968S5.307-.064 11.952-.064c6.645 0 12.032 5.387 12.032 12.032 0 2.255-.62 4.365-1.7 6.169l.03-.055 8.788 8.78zm-19.1-23.846a8.987 8.987 0 108.987 8.987 8.993 8.993 0 00-8.987-8.987z"/></symbol><symbol id="icon-shopping-cart" viewBox="0 0 18 15"><path d="M17.726 3.663h.001l-2.475 5.5a.826.826 0 01-.697.485l-7.128.475.412 1.176H15.6a1.65 1.65 0 11-1.65 1.651h-7.7a1.65 1.65 0 11-1.65-1.651h1.491L2.915 2.225h-1.89a.825.825 0 010-1.65H3.5c.36 0 .663.232.776.553l.003-.001.48 1.373h12.216a.825.825 0 01.751 1.163zM5.337 4.15l1.525 4.357 7.089-.473 1.748-3.884H5.337z"/></symbol></defs></svg>